<?xml version = "1.0" encoding = "utf-8" ?>
<svg 
xmlns = "http://www.w3.org/2000/svg"
width = "552"
height = "600"
version = "1.1">
<text x="187" y="16" font-family = "monospace" font-size="16px" font-weight="bold" fill="brown">Гранулярность 10000</text>
<text x="31" y="16" font-family = "monospace" font-size="10px" font-weight="normal" fill="black">Tмкс</text>
<text x="10" y="585" font-family = "monospace" font-size="10px" font-weight="normal" fill="black">Threads</text>
<rect x="37" y="24" width="515" height="551" stroke="black" fill="white"/>
<line x1="38" y1="571" x2="40" y2="571" stroke="silver"/>
<line x1="38" y1="567" x2="40" y2="567" stroke="silver"/>
<line x1="38" y1="563" x2="40" y2="563" stroke="silver"/>
<line x1="38" y1="559" x2="40" y2="559" stroke="silver"/>
<line x1="38" y1="554" x2="42" y2="554" stroke="silver"/>
<line x1="38" y1="550" x2="40" y2="550" stroke="silver"/>
<line x1="38" y1="546" x2="40" y2="546" stroke="silver"/>
<line x1="38" y1="542" x2="40" y2="542" stroke="silver"/>
<line x1="38" y1="537" x2="40" y2="537" stroke="silver"/>
<line x1="38" y1="533" x2="551" y2="533" stroke="silver"/>
<text x="10" y="537" font-family = "monospace" font-size="10px" font-weight="normal" fill="black">1000</text>
<line x1="38" y1="529" x2="40" y2="529" stroke="silver"/>
<line x1="38" y1="525" x2="40" y2="525" stroke="silver"/>
<line x1="38" y1="520" x2="40" y2="520" stroke="silver"/>
<line x1="38" y1="516" x2="40" y2="516" stroke="silver"/>
<line x1="38" y1="512" x2="42" y2="512" stroke="silver"/>
<line x1="38" y1="508" x2="40" y2="508" stroke="silver"/>
<line x1="38" y1="503" x2="40" y2="503" stroke="silver"/>
<line x1="38" y1="499" x2="40" y2="499" stroke="silver"/>
<line x1="38" y1="495" x2="40" y2="495" stroke="silver"/>
<line x1="38" y1="491" x2="551" y2="491" stroke="silver"/>
<text x="10" y="495" font-family = "monospace" font-size="10px" font-weight="normal" fill="black">2000</text>
<line x1="38" y1="486" x2="40" y2="486" stroke="silver"/>
<line x1="38" y1="482" x2="40" y2="482" stroke="silver"/>
<line x1="38" y1="478" x2="40" y2="478" stroke="silver"/>
<line x1="38" y1="474" x2="40" y2="474" stroke="silver"/>
<line x1="38" y1="470" x2="42" y2="470" stroke="silver"/>
<line x1="38" y1="465" x2="40" y2="465" stroke="silver"/>
<line x1="38" y1="461" x2="40" y2="461" stroke="silver"/>
<line x1="38" y1="457" x2="40" y2="457" stroke="silver"/>
<line x1="38" y1="453" x2="40" y2="453" stroke="silver"/>
<line x1="38" y1="448" x2="551" y2="448" stroke="silver"/>
<text x="10" y="452" font-family = "monospace" font-size="10px" font-weight="normal" fill="black">3000</text>
<line x1="38" y1="444" x2="40" y2="444" stroke="silver"/>
<line x1="38" y1="440" x2="40" y2="440" stroke="silver"/>
<line x1="38" y1="436" x2="40" y2="436" stroke="silver"/>
<line x1="38" y1="431" x2="40" y2="431" stroke="silver"/>
<line x1="38" y1="427" x2="42" y2="427" stroke="silver"/>
<line x1="38" y1="423" x2="40" y2="423" stroke="silver"/>
<line x1="38" y1="419" x2="40" y2="419" stroke="silver"/>
<line x1="38" y1="414" x2="40" y2="414" stroke="silver"/>
<line x1="38" y1="410" x2="40" y2="410" stroke="silver"/>
<line x1="38" y1="406" x2="551" y2="406" stroke="silver"/>
<text x="10" y="410" font-family = "monospace" font-size="10px" font-weight="normal" fill="black">4000</text>
<line x1="38" y1="402" x2="40" y2="402" stroke="silver"/>
<line x1="38" y1="397" x2="40" y2="397" stroke="silver"/>
<line x1="38" y1="393" x2="40" y2="393" stroke="silver"/>
<line x1="38" y1="389" x2="40" y2="389" stroke="silver"/>
<line x1="38" y1="385" x2="42" y2="385" stroke="silver"/>
<line x1="38" y1="381" x2="40" y2="381" stroke="silver"/>
<line x1="38" y1="376" x2="40" y2="376" stroke="silver"/>
<line x1="38" y1="372" x2="40" y2="372" stroke="silver"/>
<line x1="38" y1="368" x2="40" y2="368" stroke="silver"/>
<line x1="38" y1="364" x2="551" y2="364" stroke="silver"/>
<text x="10" y="368" font-family = "monospace" font-size="10px" font-weight="normal" fill="black">5000</text>
<line x1="38" y1="359" x2="40" y2="359" stroke="silver"/>
<line x1="38" y1="355" x2="40" y2="355" stroke="silver"/>
<line x1="38" y1="351" x2="40" y2="351" stroke="silver"/>
<line x1="38" y1="347" x2="40" y2="347" stroke="silver"/>
<line x1="38" y1="342" x2="42" y2="342" stroke="silver"/>
<line x1="38" y1="338" x2="40" y2="338" stroke="silver"/>
<line x1="38" y1="334" x2="40" y2="334" stroke="silver"/>
<line x1="38" y1="330" x2="40" y2="330" stroke="silver"/>
<line x1="38" y1="325" x2="40" y2="325" stroke="silver"/>
<line x1="38" y1="321" x2="551" y2="321" stroke="silver"/>
<text x="10" y="325" font-family = "monospace" font-size="10px" font-weight="normal" fill="black">6000</text>
<line x1="38" y1="317" x2="40" y2="317" stroke="silver"/>
<line x1="38" y1="313" x2="40" y2="313" stroke="silver"/>
<line x1="38" y1="308" x2="40" y2="308" stroke="silver"/>
<line x1="38" y1="304" x2="40" y2="304" stroke="silver"/>
<line x1="38" y1="300" x2="42" y2="300" stroke="silver"/>
<line x1="38" y1="296" x2="40" y2="296" stroke="silver"/>
<line x1="38" y1="292" x2="40" y2="292" stroke="silver"/>
<line x1="38" y1="287" x2="40" y2="287" stroke="silver"/>
<line x1="38" y1="283" x2="40" y2="283" stroke="silver"/>
<line x1="38" y1="279" x2="551" y2="279" stroke="silver"/>
<text x="10" y="283" font-family = "monospace" font-size="10px" font-weight="normal" fill="black">7000</text>
<line x1="38" y1="275" x2="40" y2="275" stroke="silver"/>
<line x1="38" y1="270" x2="40" y2="270" stroke="silver"/>
<line x1="38" y1="266" x2="40" y2="266" stroke="silver"/>
<line x1="38" y1="262" x2="40" y2="262" stroke="silver"/>
<line x1="38" y1="258" x2="42" y2="258" stroke="silver"/>
<line x1="38" y1="253" x2="40" y2="253" stroke="silver"/>
<line x1="38" y1="249" x2="40" y2="249" stroke="silver"/>
<line x1="38" y1="245" x2="40" y2="245" stroke="silver"/>
<line x1="38" y1="241" x2="40" y2="241" stroke="silver"/>
<line x1="38" y1="236" x2="551" y2="236" stroke="silver"/>
<text x="10" y="240" font-family = "monospace" font-size="10px" font-weight="normal" fill="black">8000</text>
<line x1="38" y1="232" x2="40" y2="232" stroke="silver"/>
<line x1="38" y1="228" x2="40" y2="228" stroke="silver"/>
<line x1="38" y1="224" x2="40" y2="224" stroke="silver"/>
<line x1="38" y1="219" x2="40" y2="219" stroke="silver"/>
<line x1="38" y1="215" x2="42" y2="215" stroke="silver"/>
<line x1="38" y1="211" x2="40" y2="211" stroke="silver"/>
<line x1="38" y1="207" x2="40" y2="207" stroke="silver"/>
<line x1="38" y1="203" x2="40" y2="203" stroke="silver"/>
<line x1="38" y1="198" x2="40" y2="198" stroke="silver"/>
<line x1="38" y1="194" x2="551" y2="194" stroke="silver"/>
<text x="10" y="198" font-family = "monospace" font-size="10px" font-weight="normal" fill="black">9000</text>
<line x1="38" y1="190" x2="40" y2="190" stroke="silver"/>
<line x1="38" y1="186" x2="40" y2="186" stroke="silver"/>
<line x1="38" y1="181" x2="40" y2="181" stroke="silver"/>
<line x1="38" y1="177" x2="40" y2="177" stroke="silver"/>
<line x1="38" y1="173" x2="42" y2="173" stroke="silver"/>
<line x1="38" y1="169" x2="40" y2="169" stroke="silver"/>
<line x1="38" y1="164" x2="40" y2="164" stroke="silver"/>
<line x1="38" y1="160" x2="40" y2="160" stroke="silver"/>
<line x1="38" y1="156" x2="40" y2="156" stroke="silver"/>
<line x1="38" y1="152" x2="551" y2="152" stroke="silver"/>
<text x="5" y="156" font-family = "monospace" font-size="10px" font-weight="normal" fill="black">10000</text>
<line x1="38" y1="147" x2="40" y2="147" stroke="silver"/>
<line x1="38" y1="143" x2="40" y2="143" stroke="silver"/>
<line x1="38" y1="139" x2="40" y2="139" stroke="silver"/>
<line x1="38" y1="135" x2="40" y2="135" stroke="silver"/>
<line x1="38" y1="130" x2="42" y2="130" stroke="silver"/>
<line x1="38" y1="126" x2="40" y2="126" stroke="silver"/>
<line x1="38" y1="122" x2="40" y2="122" stroke="silver"/>
<line x1="38" y1="118" x2="40" y2="118" stroke="silver"/>
<line x1="38" y1="114" x2="40" y2="114" stroke="silver"/>
<line x1="38" y1="109" x2="551" y2="109" stroke="silver"/>
<text x="5" y="113" font-family = "monospace" font-size="10px" font-weight="normal" fill="black">11000</text>
<line x1="38" y1="105" x2="40" y2="105" stroke="silver"/>
<line x1="38" y1="101" x2="40" y2="101" stroke="silver"/>
<line x1="38" y1="97" x2="40" y2="97" stroke="silver"/>
<line x1="38" y1="92" x2="40" y2="92" stroke="silver"/>
<line x1="38" y1="88" x2="42" y2="88" stroke="silver"/>
<line x1="38" y1="84" x2="40" y2="84" stroke="silver"/>
<line x1="38" y1="80" x2="40" y2="80" stroke="silver"/>
<line x1="38" y1="75" x2="40" y2="75" stroke="silver"/>
<line x1="38" y1="71" x2="40" y2="71" stroke="silver"/>
<line x1="38" y1="67" x2="551" y2="67" stroke="silver"/>
<text x="5" y="71" font-family = "monospace" font-size="10px" font-weight="normal" fill="black">12000</text>
<line x1="38" y1="63" x2="40" y2="63" stroke="silver"/>
<line x1="38" y1="58" x2="40" y2="58" stroke="silver"/>
<line x1="38" y1="54" x2="40" y2="54" stroke="silver"/>
<line x1="38" y1="50" x2="40" y2="50" stroke="silver"/>
<line x1="38" y1="46" x2="42" y2="46" stroke="silver"/>
<line x1="38" y1="41" x2="40" y2="41" stroke="silver"/>
<line x1="38" y1="37" x2="40" y2="37" stroke="silver"/>
<line x1="38" y1="33" x2="40" y2="33" stroke="silver"/>
<line x1="38" y1="29" x2="40" y2="29" stroke="silver"/>
<text x="5" y="28" font-family = "monospace" font-size="10px" font-weight="normal" fill="black">13000</text>
<rect x="47" y="552" width="5" height="23" fill="cadetblue"/>
<rect x="47" y="546" width="4" height="6" fill="cadetblue"/>
<rect x="47" y="539" width="3" height="7" fill="cadetblue"/>
<rect x="57" y="547" width="5" height="28" fill="cadetblue"/>
<rect x="57" y="540" width="4" height="7" fill="cadetblue"/>
<rect x="57" y="531" width="3" height="9" fill="cadetblue"/>
<rect x="67" y="543" width="5" height="32" fill="cadetblue"/>
<rect x="67" y="537" width="4" height="6" fill="cadetblue"/>
<rect x="67" y="533" width="3" height="4" fill="cadetblue"/>
<rect x="77" y="531" width="5" height="44" fill="cadetblue"/>
<rect x="77" y="525" width="4" height="6" fill="cadetblue"/>
<rect x="77" y="518" width="3" height="7" fill="cadetblue"/>
<rect x="87" y="517" width="5" height="58" fill="cadetblue"/>
<rect x="87" y="514" width="4" height="3" fill="cadetblue"/>
<rect x="87" y="511" width="3" height="3" fill="cadetblue"/>
<rect x="97" y="505" width="5" height="70" fill="cadetblue"/>
<rect x="97" y="498" width="4" height="7" fill="cadetblue"/>
<rect x="97" y="491" width="3" height="7" fill="cadetblue"/>
<rect x="107" y="487" width="5" height="88" fill="cadetblue"/>
<rect x="107" y="480" width="4" height="7" fill="cadetblue"/>
<rect x="107" y="474" width="3" height="6" fill="cadetblue"/>
<rect x="117" y="473" width="5" height="102" fill="cadetblue"/>
<rect x="117" y="465" width="4" height="8" fill="cadetblue"/>
<rect x="117" y="461" width="3" height="4" fill="cadetblue"/>
<rect x="127" y="456" width="5" height="119" fill="cadetblue"/>
<rect x="127" y="446" width="4" height="10" fill="cadetblue"/>
<rect x="127" y="439" width="3" height="7" fill="cadetblue"/>
<rect x="137" y="438" width="5" height="137" fill="cadetblue"/>
<rect x="137" y="430" width="4" height="8" fill="cadetblue"/>
<rect x="137" y="424" width="3" height="6" fill="cadetblue"/>
<rect x="147" y="419" width="5" height="156" fill="cadetblue"/>
<rect x="147" y="190" width="4" height="229" fill="cadetblue"/>
<rect x="147" y="48" width="3" height="142" fill="cadetblue"/>
<rect x="157" y="408" width="5" height="167" fill="cadetblue"/>
<rect x="157" y="393" width="4" height="15" fill="cadetblue"/>
<rect x="157" y="366" width="3" height="27" fill="cadetblue"/>
<text x="89" y="585" font-family = "monospace" font-size="10px" font-weight="normal" fill="black">1..12</text>
<rect x="172" y="556" width="5" height="19" fill="brown"/>
<rect x="172" y="555" width="4" height="1" fill="brown"/>
<rect x="172" y="553" width="3" height="2" fill="brown"/>
<rect x="182" y="551" width="5" height="24" fill="brown"/>
<rect x="182" y="548" width="4" height="3" fill="brown"/>
<rect x="182" y="545" width="3" height="3" fill="brown"/>
<rect x="192" y="542" width="5" height="33" fill="brown"/>
<rect x="192" y="539" width="4" height="3" fill="brown"/>
<rect x="192" y="537" width="3" height="2" fill="brown"/>
<rect x="202" y="530" width="5" height="45" fill="brown"/>
<rect x="202" y="518" width="4" height="12" fill="brown"/>
<rect x="202" y="512" width="3" height="6" fill="brown"/>
<rect x="212" y="506" width="5" height="69" fill="brown"/>
<rect x="212" y="493" width="4" height="13" fill="brown"/>
<rect x="212" y="480" width="3" height="13" fill="brown"/>
<rect x="222" y="360" width="5" height="215" fill="brown"/>
<rect x="222" y="315" width="4" height="45" fill="brown"/>
<rect x="222" y="276" width="3" height="39" fill="brown"/>
<rect x="232" y="488" width="5" height="87" fill="brown"/>
<rect x="232" y="478" width="4" height="10" fill="brown"/>
<rect x="232" y="435" width="3" height="43" fill="brown"/>
<rect x="242" y="475" width="5" height="100" fill="brown"/>
<rect x="242" y="470" width="4" height="5" fill="brown"/>
<rect x="242" y="466" width="3" height="4" fill="brown"/>
<rect x="252" y="459" width="5" height="116" fill="brown"/>
<rect x="252" y="454" width="4" height="5" fill="brown"/>
<rect x="252" y="451" width="3" height="3" fill="brown"/>
<rect x="262" y="183" width="5" height="392" fill="brown"/>
<rect x="262" y="148" width="4" height="35" fill="brown"/>
<rect x="262" y="88" width="3" height="60" fill="brown"/>
<rect x="272" y="421" width="5" height="154" fill="brown"/>
<rect x="272" y="415" width="4" height="6" fill="brown"/>
<rect x="272" y="409" width="3" height="6" fill="brown"/>
<rect x="282" y="413" width="5" height="162" fill="brown"/>
<rect x="282" y="402" width="4" height="11" fill="brown"/>
<rect x="282" y="366" width="3" height="36" fill="brown"/>
<text x="214" y="585" font-family = "monospace" font-size="10px" font-weight="normal" fill="black">1..12</text>
<rect x="297" y="559" width="5" height="16" fill="darkorchid"/>
<rect x="297" y="557" width="4" height="2" fill="darkorchid"/>
<rect x="297" y="555" width="3" height="2" fill="darkorchid"/>
<rect x="307" y="498" width="5" height="77" fill="darkorchid"/>
<rect x="307" y="482" width="4" height="16" fill="darkorchid"/>
<rect x="307" y="468" width="3" height="14" fill="darkorchid"/>
<rect x="317" y="541" width="5" height="34" fill="darkorchid"/>
<rect x="317" y="538" width="4" height="3" fill="darkorchid"/>
<rect x="317" y="532" width="3" height="6" fill="darkorchid"/>
<rect x="327" y="524" width="5" height="51" fill="darkorchid"/>
<rect x="327" y="518" width="4" height="6" fill="darkorchid"/>
<rect x="327" y="514" width="3" height="4" fill="darkorchid"/>
<rect x="337" y="513" width="5" height="62" fill="darkorchid"/>
<rect x="337" y="508" width="4" height="5" fill="darkorchid"/>
<rect x="337" y="501" width="3" height="7" fill="darkorchid"/>
<rect x="347" y="504" width="5" height="71" fill="darkorchid"/>
<rect x="347" y="499" width="4" height="5" fill="darkorchid"/>
<rect x="347" y="494" width="3" height="5" fill="darkorchid"/>
<rect x="357" y="339" width="5" height="236" fill="darkorchid"/>
<rect x="357" y="245" width="4" height="94" fill="darkorchid"/>
<rect x="357" y="173" width="3" height="72" fill="darkorchid"/>
<rect x="367" y="476" width="5" height="99" fill="darkorchid"/>
<rect x="367" y="455" width="4" height="21" fill="darkorchid"/>
<rect x="367" y="413" width="3" height="42" fill="darkorchid"/>
<rect x="377" y="457" width="5" height="118" fill="darkorchid"/>
<rect x="377" y="438" width="4" height="19" fill="darkorchid"/>
<rect x="377" y="408" width="3" height="30" fill="darkorchid"/>
<rect x="387" y="435" width="5" height="140" fill="darkorchid"/>
<rect x="387" y="424" width="4" height="11" fill="darkorchid"/>
<rect x="387" y="411" width="3" height="13" fill="darkorchid"/>
<rect x="397" y="423" width="5" height="152" fill="darkorchid"/>
<rect x="397" y="207" width="4" height="216" fill="darkorchid"/>
<rect x="397" y="68" width="3" height="139" fill="darkorchid"/>
<rect x="407" y="406" width="5" height="169" fill="darkorchid"/>
<rect x="407" y="399" width="4" height="7" fill="darkorchid"/>
<rect x="407" y="393" width="3" height="6" fill="darkorchid"/>
<text x="339" y="585" font-family = "monospace" font-size="10px" font-weight="normal" fill="black">1..12</text>
<rect x="422" y="568" width="5" height="7" fill="red"/>
<rect x="422" y="568" width="4" height="0" fill="red"/>
<rect x="422" y="568" width="3" height="0" fill="red"/>
<rect x="432" y="572" width="5" height="3" fill="red"/>
<rect x="432" y="572" width="4" height="0" fill="red"/>
<rect x="432" y="572" width="3" height="0" fill="red"/>
<rect x="442" y="573" width="5" height="2" fill="red"/>
<rect x="442" y="573" width="4" height="0" fill="red"/>
<rect x="442" y="573" width="3" height="0" fill="red"/>
<rect x="452" y="573" width="5" height="2" fill="red"/>
<rect x="452" y="573" width="4" height="0" fill="red"/>
<rect x="452" y="573" width="3" height="0" fill="red"/>
<rect x="462" y="572" width="5" height="3" fill="red"/>
<rect x="462" y="571" width="4" height="1" fill="red"/>
<rect x="462" y="571" width="3" height="0" fill="red"/>
<rect x="472" y="572" width="5" height="3" fill="red"/>
<rect x="472" y="572" width="4" height="0" fill="red"/>
<rect x="472" y="572" width="3" height="0" fill="red"/>
<rect x="482" y="573" width="5" height="2" fill="red"/>
<rect x="482" y="573" width="4" height="0" fill="red"/>
<rect x="482" y="572" width="3" height="1" fill="red"/>
<rect x="492" y="573" width="5" height="2" fill="red"/>
<rect x="492" y="573" width="4" height="0" fill="red"/>
<rect x="492" y="571" width="3" height="2" fill="red"/>
<rect x="502" y="571" width="5" height="4" fill="red"/>
<rect x="502" y="571" width="4" height="0" fill="red"/>
<rect x="502" y="571" width="3" height="0" fill="red"/>
<rect x="512" y="574" width="5" height="1" fill="red"/>
<rect x="512" y="573" width="4" height="1" fill="red"/>
<rect x="512" y="573" width="3" height="0" fill="red"/>
<rect x="522" y="574" width="5" height="1" fill="red"/>
<rect x="522" y="574" width="4" height="0" fill="red"/>
<rect x="522" y="573" width="3" height="1" fill="red"/>
<rect x="532" y="574" width="5" height="1" fill="red"/>
<rect x="532" y="574" width="4" height="0" fill="red"/>
<rect x="532" y="573" width="3" height="1" fill="red"/>
<text x="464" y="585" font-family = "monospace" font-size="10px" font-weight="normal" fill="black">1..12</text>
<rect x="37" y="590" width="10" height="8" fill="cadetblue"/>
<text x="50" y="598" font-family = "monospace" font-size="10px" font-weight="normal" fill="black">integralThreadLock</text>
<rect x="159" y="590" width="10" height="8" fill="brown"/>
<text x="172" y="598" font-family = "monospace" font-size="10px" font-weight="normal" fill="black">integralThreadStNoLock</text>
<rect x="303" y="590" width="10" height="8" fill="darkorchid"/>
<text x="316" y="598" font-family = "monospace" font-size="10px" font-weight="normal" fill="black">integralThreadStLock</text>
<rect x="436" y="590" width="10" height="8" fill="red"/>
<text x="449" y="598" font-family = "monospace" font-size="10px" font-weight="normal" fill="black">integralOpenMP</text>
</svg>