<?xml version = "1.0" encoding = "utf-8" ?>
<svg 
xmlns = "http://www.w3.org/2000/svg"
width = "552"
height = "600"
version = "1.1">
<text x="187" y="16" font-family = "monospace" font-size="16px" font-weight="bold" fill="brown">Гранулярность 100000</text>
<text x="31" y="16" font-family = "monospace" font-size="10px" font-weight="normal" fill="black">Tмкс</text>
<text x="10" y="585" font-family = "monospace" font-size="10px" font-weight="normal" fill="black">Threads</text>
<rect x="37" y="24" width="515" height="551" stroke="black" fill="white"/>
<line x1="38" y1="572" x2="40" y2="572" stroke="silver"/>
<line x1="38" y1="568" x2="40" y2="568" stroke="silver"/>
<line x1="38" y1="564" x2="40" y2="564" stroke="silver"/>
<line x1="38" y1="561" x2="40" y2="561" stroke="silver"/>
<line x1="38" y1="557" x2="42" y2="557" stroke="silver"/>
<line x1="38" y1="553" x2="40" y2="553" stroke="silver"/>
<line x1="38" y1="550" x2="40" y2="550" stroke="silver"/>
<line x1="38" y1="546" x2="40" y2="546" stroke="silver"/>
<line x1="38" y1="542" x2="40" y2="542" stroke="silver"/>
<line x1="38" y1="539" x2="551" y2="539" stroke="silver"/>
<text x="10" y="543" font-family = "monospace" font-size="10px" font-weight="normal" fill="black">1000</text>
<line x1="38" y1="535" x2="40" y2="535" stroke="silver"/>
<line x1="38" y1="531" x2="40" y2="531" stroke="silver"/>
<line x1="38" y1="528" x2="40" y2="528" stroke="silver"/>
<line x1="38" y1="524" x2="40" y2="524" stroke="silver"/>
<line x1="38" y1="520" x2="42" y2="520" stroke="silver"/>
<line x1="38" y1="517" x2="40" y2="517" stroke="silver"/>
<line x1="38" y1="513" x2="40" y2="513" stroke="silver"/>
<line x1="38" y1="509" x2="40" y2="509" stroke="silver"/>
<line x1="38" y1="506" x2="40" y2="506" stroke="silver"/>
<line x1="38" y1="502" x2="551" y2="502" stroke="silver"/>
<text x="10" y="506" font-family = "monospace" font-size="10px" font-weight="normal" fill="black">2000</text>
<line x1="38" y1="498" x2="40" y2="498" stroke="silver"/>
<line x1="38" y1="495" x2="40" y2="495" stroke="silver"/>
<line x1="38" y1="491" x2="40" y2="491" stroke="silver"/>
<line x1="38" y1="487" x2="40" y2="487" stroke="silver"/>
<line x1="38" y1="484" x2="42" y2="484" stroke="silver"/>
<line x1="38" y1="480" x2="40" y2="480" stroke="silver"/>
<line x1="38" y1="476" x2="40" y2="476" stroke="silver"/>
<line x1="38" y1="473" x2="40" y2="473" stroke="silver"/>
<line x1="38" y1="469" x2="40" y2="469" stroke="silver"/>
<line x1="38" y1="465" x2="551" y2="465" stroke="silver"/>
<text x="10" y="469" font-family = "monospace" font-size="10px" font-weight="normal" fill="black">3000</text>
<line x1="38" y1="462" x2="40" y2="462" stroke="silver"/>
<line x1="38" y1="458" x2="40" y2="458" stroke="silver"/>
<line x1="38" y1="454" x2="40" y2="454" stroke="silver"/>
<line x1="38" y1="451" x2="40" y2="451" stroke="silver"/>
<line x1="38" y1="447" x2="42" y2="447" stroke="silver"/>
<line x1="38" y1="443" x2="40" y2="443" stroke="silver"/>
<line x1="38" y1="440" x2="40" y2="440" stroke="silver"/>
<line x1="38" y1="436" x2="40" y2="436" stroke="silver"/>
<line x1="38" y1="432" x2="40" y2="432" stroke="silver"/>
<line x1="38" y1="429" x2="551" y2="429" stroke="silver"/>
<text x="10" y="433" font-family = "monospace" font-size="10px" font-weight="normal" fill="black">4000</text>
<line x1="38" y1="425" x2="40" y2="425" stroke="silver"/>
<line x1="38" y1="421" x2="40" y2="421" stroke="silver"/>
<line x1="38" y1="418" x2="40" y2="418" stroke="silver"/>
<line x1="38" y1="414" x2="40" y2="414" stroke="silver"/>
<line x1="38" y1="410" x2="42" y2="410" stroke="silver"/>
<line x1="38" y1="407" x2="40" y2="407" stroke="silver"/>
<line x1="38" y1="403" x2="40" y2="403" stroke="silver"/>
<line x1="38" y1="399" x2="40" y2="399" stroke="silver"/>
<line x1="38" y1="396" x2="40" y2="396" stroke="silver"/>
<line x1="38" y1="392" x2="551" y2="392" stroke="silver"/>
<text x="10" y="396" font-family = "monospace" font-size="10px" font-weight="normal" fill="black">5000</text>
<line x1="38" y1="388" x2="40" y2="388" stroke="silver"/>
<line x1="38" y1="384" x2="40" y2="384" stroke="silver"/>
<line x1="38" y1="381" x2="40" y2="381" stroke="silver"/>
<line x1="38" y1="377" x2="40" y2="377" stroke="silver"/>
<line x1="38" y1="373" x2="42" y2="373" stroke="silver"/>
<line x1="38" y1="370" x2="40" y2="370" stroke="silver"/>
<line x1="38" y1="366" x2="40" y2="366" stroke="silver"/>
<line x1="38" y1="362" x2="40" y2="362" stroke="silver"/>
<line x1="38" y1="359" x2="40" y2="359" stroke="silver"/>
<line x1="38" y1="355" x2="551" y2="355" stroke="silver"/>
<text x="10" y="359" font-family = "monospace" font-size="10px" font-weight="normal" fill="black">6000</text>
<line x1="38" y1="351" x2="40" y2="351" stroke="silver"/>
<line x1="38" y1="348" x2="40" y2="348" stroke="silver"/>
<line x1="38" y1="344" x2="40" y2="344" stroke="silver"/>
<line x1="38" y1="340" x2="40" y2="340" stroke="silver"/>
<line x1="38" y1="337" x2="42" y2="337" stroke="silver"/>
<line x1="38" y1="333" x2="40" y2="333" stroke="silver"/>
<line x1="38" y1="329" x2="40" y2="329" stroke="silver"/>
<line x1="38" y1="326" x2="40" y2="326" stroke="silver"/>
<line x1="38" y1="322" x2="40" y2="322" stroke="silver"/>
<line x1="38" y1="318" x2="551" y2="318" stroke="silver"/>
<text x="10" y="322" font-family = "monospace" font-size="10px" font-weight="normal" fill="black">7000</text>
<line x1="38" y1="315" x2="40" y2="315" stroke="silver"/>
<line x1="38" y1="311" x2="40" y2="311" stroke="silver"/>
<line x1="38" y1="307" x2="40" y2="307" stroke="silver"/>
<line x1="38" y1="304" x2="40" y2="304" stroke="silver"/>
<line x1="38" y1="300" x2="42" y2="300" stroke="silver"/>
<line x1="38" y1="296" x2="40" y2="296" stroke="silver"/>
<line x1="38" y1="293" x2="40" y2="293" stroke="silver"/>
<line x1="38" y1="289" x2="40" y2="289" stroke="silver"/>
<line x1="38" y1="285" x2="40" y2="285" stroke="silver"/>
<line x1="38" y1="282" x2="551" y2="282" stroke="silver"/>
<text x="10" y="286" font-family = "monospace" font-size="10px" font-weight="normal" fill="black">8000</text>
<line x1="38" y1="278" x2="40" y2="278" stroke="silver"/>
<line x1="38" y1="274" x2="40" y2="274" stroke="silver"/>
<line x1="38" y1="271" x2="40" y2="271" stroke="silver"/>
<line x1="38" y1="267" x2="40" y2="267" stroke="silver"/>
<line x1="38" y1="263" x2="42" y2="263" stroke="silver"/>
<line x1="38" y1="260" x2="40" y2="260" stroke="silver"/>
<line x1="38" y1="256" x2="40" y2="256" stroke="silver"/>
<line x1="38" y1="252" x2="40" y2="252" stroke="silver"/>
<line x1="38" y1="249" x2="40" y2="249" stroke="silver"/>
<line x1="38" y1="245" x2="551" y2="245" stroke="silver"/>
<text x="10" y="249" font-family = "monospace" font-size="10px" font-weight="normal" fill="black">9000</text>
<line x1="38" y1="241" x2="40" y2="241" stroke="silver"/>
<line x1="38" y1="238" x2="40" y2="238" stroke="silver"/>
<line x1="38" y1="234" x2="40" y2="234" stroke="silver"/>
<line x1="38" y1="230" x2="40" y2="230" stroke="silver"/>
<line x1="38" y1="227" x2="42" y2="227" stroke="silver"/>
<line x1="38" y1="223" x2="40" y2="223" stroke="silver"/>
<line x1="38" y1="219" x2="40" y2="219" stroke="silver"/>
<line x1="38" y1="216" x2="40" y2="216" stroke="silver"/>
<line x1="38" y1="212" x2="40" y2="212" stroke="silver"/>
<line x1="38" y1="208" x2="551" y2="208" stroke="silver"/>
<text x="5" y="212" font-family = "monospace" font-size="10px" font-weight="normal" fill="black">10000</text>
<line x1="38" y1="204" x2="40" y2="204" stroke="silver"/>
<line x1="38" y1="201" x2="40" y2="201" stroke="silver"/>
<line x1="38" y1="197" x2="40" y2="197" stroke="silver"/>
<line x1="38" y1="193" x2="40" y2="193" stroke="silver"/>
<line x1="38" y1="190" x2="42" y2="190" stroke="silver"/>
<line x1="38" y1="186" x2="40" y2="186" stroke="silver"/>
<line x1="38" y1="182" x2="40" y2="182" stroke="silver"/>
<line x1="38" y1="179" x2="40" y2="179" stroke="silver"/>
<line x1="38" y1="175" x2="40" y2="175" stroke="silver"/>
<line x1="38" y1="171" x2="551" y2="171" stroke="silver"/>
<text x="5" y="175" font-family = "monospace" font-size="10px" font-weight="normal" fill="black">11000</text>
<line x1="38" y1="168" x2="40" y2="168" stroke="silver"/>
<line x1="38" y1="164" x2="40" y2="164" stroke="silver"/>
<line x1="38" y1="160" x2="40" y2="160" stroke="silver"/>
<line x1="38" y1="157" x2="40" y2="157" stroke="silver"/>
<line x1="38" y1="153" x2="42" y2="153" stroke="silver"/>
<line x1="38" y1="149" x2="40" y2="149" stroke="silver"/>
<line x1="38" y1="146" x2="40" y2="146" stroke="silver"/>
<line x1="38" y1="142" x2="40" y2="142" stroke="silver"/>
<line x1="38" y1="138" x2="40" y2="138" stroke="silver"/>
<line x1="38" y1="135" x2="551" y2="135" stroke="silver"/>
<text x="5" y="139" font-family = "monospace" font-size="10px" font-weight="normal" fill="black">12000</text>
<line x1="38" y1="131" x2="40" y2="131" stroke="silver"/>
<line x1="38" y1="127" x2="40" y2="127" stroke="silver"/>
<line x1="38" y1="124" x2="40" y2="124" stroke="silver"/>
<line x1="38" y1="120" x2="40" y2="120" stroke="silver"/>
<line x1="38" y1="116" x2="42" y2="116" stroke="silver"/>
<line x1="38" y1="113" x2="40" y2="113" stroke="silver"/>
<line x1="38" y1="109" x2="40" y2="109" stroke="silver"/>
<line x1="38" y1="105" x2="40" y2="105" stroke="silver"/>
<line x1="38" y1="102" x2="40" y2="102" stroke="silver"/>
<line x1="38" y1="98" x2="551" y2="98" stroke="silver"/>
<text x="5" y="102" font-family = "monospace" font-size="10px" font-weight="normal" fill="black">13000</text>
<line x1="38" y1="94" x2="40" y2="94" stroke="silver"/>
<line x1="38" y1="91" x2="40" y2="91" stroke="silver"/>
<line x1="38" y1="87" x2="40" y2="87" stroke="silver"/>
<line x1="38" y1="83" x2="40" y2="83" stroke="silver"/>
<line x1="38" y1="80" x2="42" y2="80" stroke="silver"/>
<line x1="38" y1="76" x2="40" y2="76" stroke="silver"/>
<line x1="38" y1="72" x2="40" y2="72" stroke="silver"/>
<line x1="38" y1="69" x2="40" y2="69" stroke="silver"/>
<line x1="38" y1="65" x2="40" y2="65" stroke="silver"/>
<line x1="38" y1="61" x2="551" y2="61" stroke="silver"/>
<text x="5" y="65" font-family = "monospace" font-size="10px" font-weight="normal" fill="black">14000</text>
<line x1="38" y1="58" x2="40" y2="58" stroke="silver"/>
<line x1="38" y1="54" x2="40" y2="54" stroke="silver"/>
<line x1="38" y1="50" x2="40" y2="50" stroke="silver"/>
<line x1="38" y1="47" x2="40" y2="47" stroke="silver"/>
<line x1="38" y1="43" x2="42" y2="43" stroke="silver"/>
<line x1="38" y1="39" x2="40" y2="39" stroke="silver"/>
<line x1="38" y1="36" x2="40" y2="36" stroke="silver"/>
<line x1="38" y1="32" x2="40" y2="32" stroke="silver"/>
<line x1="38" y1="28" x2="40" y2="28" stroke="silver"/>
<text x="5" y="28" font-family = "monospace" font-size="10px" font-weight="normal" fill="black">15000</text>
<rect x="47" y="490" width="5" height="85" fill="cadetblue"/>
<rect x="47" y="481" width="4" height="9" fill="cadetblue"/>
<rect x="47" y="477" width="3" height="4" fill="cadetblue"/>
<rect x="57" y="520" width="5" height="55" fill="cadetblue"/>
<rect x="57" y="507" width="4" height="13" fill="cadetblue"/>
<rect x="57" y="491" width="3" height="16" fill="cadetblue"/>
<rect x="67" y="520" width="5" height="55" fill="cadetblue"/>
<rect x="67" y="503" width="4" height="17" fill="cadetblue"/>
<rect x="67" y="486" width="3" height="17" fill="cadetblue"/>
<rect x="77" y="510" width="5" height="65" fill="cadetblue"/>
<rect x="77" y="500" width="4" height="10" fill="cadetblue"/>
<rect x="77" y="488" width="3" height="12" fill="cadetblue"/>
<rect x="87" y="501" width="5" height="74" fill="cadetblue"/>
<rect x="87" y="483" width="4" height="18" fill="cadetblue"/>
<rect x="87" y="468" width="3" height="15" fill="cadetblue"/>
<rect x="97" y="327" width="5" height="248" fill="cadetblue"/>
<rect x="97" y="293" width="4" height="34" fill="cadetblue"/>
<rect x="97" y="264" width="3" height="29" fill="cadetblue"/>
<rect x="107" y="469" width="5" height="106" fill="cadetblue"/>
<rect x="107" y="443" width="4" height="26" fill="cadetblue"/>
<rect x="107" y="421" width="3" height="22" fill="cadetblue"/>
<rect x="117" y="462" width="5" height="113" fill="cadetblue"/>
<rect x="117" y="442" width="4" height="20" fill="cadetblue"/>
<rect x="117" y="418" width="3" height="24" fill="cadetblue"/>
<rect x="127" y="443" width="5" height="132" fill="cadetblue"/>
<rect x="127" y="356" width="4" height="87" fill="cadetblue"/>
<rect x="127" y="175" width="3" height="181" fill="cadetblue"/>
<rect x="137" y="428" width="5" height="147" fill="cadetblue"/>
<rect x="137" y="415" width="4" height="13" fill="cadetblue"/>
<rect x="137" y="403" width="3" height="12" fill="cadetblue"/>
<rect x="147" y="412" width="5" height="163" fill="cadetblue"/>
<rect x="147" y="396" width="4" height="16" fill="cadetblue"/>
<rect x="147" y="368" width="3" height="28" fill="cadetblue"/>
<rect x="157" y="395" width="5" height="180" fill="cadetblue"/>
<rect x="157" y="386" width="4" height="9" fill="cadetblue"/>
<rect x="157" y="370" width="3" height="16" fill="cadetblue"/>
<text x="89" y="585" font-family = "monospace" font-size="10px" font-weight="normal" fill="black">1..12</text>
<rect x="172" y="492" width="5" height="83" fill="brown"/>
<rect x="172" y="482" width="4" height="10" fill="brown"/>
<rect x="172" y="477" width="3" height="5" fill="brown"/>
<rect x="182" y="525" width="5" height="50" fill="brown"/>
<rect x="182" y="516" width="4" height="9" fill="brown"/>
<rect x="182" y="509" width="3" height="7" fill="brown"/>
<rect x="192" y="519" width="5" height="56" fill="brown"/>
<rect x="192" y="508" width="4" height="11" fill="brown"/>
<rect x="192" y="497" width="3" height="11" fill="brown"/>
<rect x="202" y="493" width="5" height="82" fill="brown"/>
<rect x="202" y="473" width="4" height="20" fill="brown"/>
<rect x="202" y="458" width="3" height="15" fill="brown"/>
<rect x="212" y="359" width="5" height="216" fill="brown"/>
<rect x="212" y="331" width="4" height="28" fill="brown"/>
<rect x="212" y="310" width="3" height="21" fill="brown"/>
<rect x="222" y="482" width="5" height="93" fill="brown"/>
<rect x="222" y="456" width="4" height="26" fill="brown"/>
<rect x="222" y="440" width="3" height="16" fill="brown"/>
<rect x="232" y="467" width="5" height="108" fill="brown"/>
<rect x="232" y="458" width="4" height="9" fill="brown"/>
<rect x="232" y="449" width="3" height="9" fill="brown"/>
<rect x="242" y="246" width="5" height="329" fill="brown"/>
<rect x="242" y="173" width="4" height="73" fill="brown"/>
<rect x="242" y="137" width="3" height="36" fill="brown"/>
<rect x="252" y="443" width="5" height="132" fill="brown"/>
<rect x="252" y="431" width="4" height="12" fill="brown"/>
<rect x="252" y="409" width="3" height="22" fill="brown"/>
<rect x="262" y="428" width="5" height="147" fill="brown"/>
<rect x="262" y="418" width="4" height="10" fill="brown"/>
<rect x="262" y="404" width="3" height="14" fill="brown"/>
<rect x="272" y="411" width="5" height="164" fill="brown"/>
<rect x="272" y="397" width="4" height="14" fill="brown"/>
<rect x="272" y="380" width="3" height="17" fill="brown"/>
<rect x="282" y="396" width="5" height="179" fill="brown"/>
<rect x="282" y="366" width="4" height="30" fill="brown"/>
<rect x="282" y="317" width="3" height="49" fill="brown"/>
<text x="214" y="585" font-family = "monospace" font-size="10px" font-weight="normal" fill="black">1..12</text>
<rect x="297" y="401" width="5" height="174" fill="darkorchid"/>
<rect x="297" y="391" width="4" height="10" fill="darkorchid"/>
<rect x="297" y="383" width="3" height="8" fill="darkorchid"/>
<rect x="307" y="518" width="5" height="57" fill="darkorchid"/>
<rect x="307" y="507" width="4" height="11" fill="darkorchid"/>
<rect x="307" y="497" width="3" height="10" fill="darkorchid"/>
<rect x="317" y="519" width="5" height="56" fill="darkorchid"/>
<rect x="317" y="514" width="4" height="5" fill="darkorchid"/>
<rect x="317" y="509" width="3" height="5" fill="darkorchid"/>
<rect x="327" y="513" width="5" height="62" fill="darkorchid"/>
<rect x="327" y="506" width="4" height="7" fill="darkorchid"/>
<rect x="327" y="501" width="3" height="5" fill="darkorchid"/>
<rect x="337" y="383" width="5" height="192" fill="darkorchid"/>
<rect x="337" y="329" width="4" height="54" fill="darkorchid"/>
<rect x="337" y="295" width="3" height="34" fill="darkorchid"/>
<rect x="347" y="348" width="5" height="227" fill="darkorchid"/>
<rect x="347" y="316" width="4" height="32" fill="darkorchid"/>
<rect x="347" y="292" width="3" height="24" fill="darkorchid"/>
<rect x="357" y="476" width="5" height="99" fill="darkorchid"/>
<rect x="357" y="440" width="4" height="36" fill="darkorchid"/>
<rect x="357" y="423" width="3" height="17" fill="darkorchid"/>
<rect x="367" y="456" width="5" height="119" fill="darkorchid"/>
<rect x="367" y="450" width="4" height="6" fill="darkorchid"/>
<rect x="367" y="444" width="3" height="6" fill="darkorchid"/>
<rect x="377" y="419" width="5" height="156" fill="darkorchid"/>
<rect x="377" y="325" width="4" height="94" fill="darkorchid"/>
<rect x="377" y="183" width="3" height="142" fill="darkorchid"/>
<rect x="387" y="426" width="5" height="149" fill="darkorchid"/>
<rect x="387" y="410" width="4" height="16" fill="darkorchid"/>
<rect x="387" y="400" width="3" height="10" fill="darkorchid"/>
<rect x="397" y="116" width="5" height="459" fill="darkorchid"/>
<rect x="397" y="72" width="4" height="44" fill="darkorchid"/>
<rect x="397" y="47" width="3" height="25" fill="darkorchid"/>
<rect x="407" y="393" width="5" height="182" fill="darkorchid"/>
<rect x="407" y="381" width="4" height="12" fill="darkorchid"/>
<rect x="407" y="366" width="3" height="15" fill="darkorchid"/>
<text x="339" y="585" font-family = "monospace" font-size="10px" font-weight="normal" fill="black">1..12</text>
<rect x="422" y="511" width="5" height="64" fill="red"/>
<rect x="422" y="509" width="4" height="2" fill="red"/>
<rect x="422" y="508" width="3" height="1" fill="red"/>
<rect x="432" y="506" width="5" height="69" fill="red"/>
<rect x="432" y="503" width="4" height="3" fill="red"/>
<rect x="432" y="498" width="3" height="5" fill="red"/>
<rect x="442" y="555" width="5" height="20" fill="red"/>
<rect x="442" y="551" width="4" height="4" fill="red"/>
<rect x="442" y="550" width="3" height="1" fill="red"/>
<rect x="452" y="560" width="5" height="15" fill="red"/>
<rect x="452" y="557" width="4" height="3" fill="red"/>
<rect x="452" y="556" width="3" height="1" fill="red"/>
<rect x="462" y="560" width="5" height="15" fill="red"/>
<rect x="462" y="560" width="4" height="0" fill="red"/>
<rect x="462" y="559" width="3" height="1" fill="red"/>
<rect x="472" y="563" width="5" height="12" fill="red"/>
<rect x="472" y="562" width="4" height="1" fill="red"/>
<rect x="472" y="561" width="3" height="1" fill="red"/>
<rect x="482" y="564" width="5" height="11" fill="red"/>
<rect x="482" y="563" width="4" height="1" fill="red"/>
<rect x="482" y="561" width="3" height="2" fill="red"/>
<rect x="492" y="565" width="5" height="10" fill="red"/>
<rect x="492" y="563" width="4" height="2" fill="red"/>
<rect x="492" y="556" width="3" height="7" fill="red"/>
<rect x="502" y="558" width="5" height="17" fill="red"/>
<rect x="502" y="557" width="4" height="1" fill="red"/>
<rect x="502" y="556" width="3" height="1" fill="red"/>
<rect x="512" y="543" width="5" height="32" fill="red"/>
<rect x="512" y="542" width="4" height="1" fill="red"/>
<rect x="512" y="541" width="3" height="1" fill="red"/>
<rect x="522" y="546" width="5" height="29" fill="red"/>
<rect x="522" y="545" width="4" height="1" fill="red"/>
<rect x="522" y="541" width="3" height="4" fill="red"/>
<rect x="532" y="548" width="5" height="27" fill="red"/>
<rect x="532" y="546" width="4" height="2" fill="red"/>
<rect x="532" y="542" width="3" height="4" fill="red"/>
<text x="464" y="585" font-family = "monospace" font-size="10px" font-weight="normal" fill="black">1..12</text>
<rect x="37" y="590" width="10" height="8" fill="cadetblue"/>
<text x="50" y="598" font-family = "monospace" font-size="10px" font-weight="normal" fill="black">integralThreadLock</text>
<rect x="159" y="590" width="10" height="8" fill="brown"/>
<text x="172" y="598" font-family = "monospace" font-size="10px" font-weight="normal" fill="black">integralThreadStNoLock</text>
<rect x="303" y="590" width="10" height="8" fill="darkorchid"/>
<text x="316" y="598" font-family = "monospace" font-size="10px" font-weight="normal" fill="black">integralThreadStLock</text>
<rect x="436" y="590" width="10" height="8" fill="red"/>
<text x="449" y="598" font-family = "monospace" font-size="10px" font-weight="normal" fill="black">integralOpenMP</text>
</svg>