<?xml version = "1.0" encoding = "utf-8" ?>
<svg 
xmlns = "http://www.w3.org/2000/svg"
width = "592"
height = "600"
version = "1.1">
<text x="187" y="16" font-family = "monospace" font-size="16px" font-weight="bold" fill="brown">Гранулярность 10000</text>
<text x="31" y="16" font-family = "monospace" font-size="10px" font-weight="normal" fill="black">Tмкс</text>
<text x="10" y="585" font-family = "monospace" font-size="10px" font-weight="normal" fill="black">Threads</text>
<rect x="37" y="24" width="555" height="551" stroke="black" fill="white"/>
<line x1="38" y1="572" x2="40" y2="572" stroke="silver"/>
<line x1="38" y1="568" x2="40" y2="568" stroke="silver"/>
<line x1="38" y1="564" x2="40" y2="564" stroke="silver"/>
<line x1="38" y1="560" x2="40" y2="560" stroke="silver"/>
<line x1="38" y1="556" x2="42" y2="556" stroke="silver"/>
<line x1="38" y1="552" x2="40" y2="552" stroke="silver"/>
<line x1="38" y1="548" x2="40" y2="548" stroke="silver"/>
<line x1="38" y1="544" x2="40" y2="544" stroke="silver"/>
<line x1="38" y1="540" x2="40" y2="540" stroke="silver"/>
<line x1="38" y1="536" x2="591" y2="536" stroke="silver"/>
<text x="10" y="540" font-family = "monospace" font-size="10px" font-weight="normal" fill="black">1000</text>
<line x1="38" y1="532" x2="40" y2="532" stroke="silver"/>
<line x1="38" y1="528" x2="40" y2="528" stroke="silver"/>
<line x1="38" y1="524" x2="40" y2="524" stroke="silver"/>
<line x1="38" y1="520" x2="40" y2="520" stroke="silver"/>
<line x1="38" y1="516" x2="42" y2="516" stroke="silver"/>
<line x1="38" y1="513" x2="40" y2="513" stroke="silver"/>
<line x1="38" y1="509" x2="40" y2="509" stroke="silver"/>
<line x1="38" y1="505" x2="40" y2="505" stroke="silver"/>
<line x1="38" y1="501" x2="40" y2="501" stroke="silver"/>
<line x1="38" y1="497" x2="591" y2="497" stroke="silver"/>
<text x="10" y="501" font-family = "monospace" font-size="10px" font-weight="normal" fill="black">2000</text>
<line x1="38" y1="493" x2="40" y2="493" stroke="silver"/>
<line x1="38" y1="489" x2="40" y2="489" stroke="silver"/>
<line x1="38" y1="485" x2="40" y2="485" stroke="silver"/>
<line x1="38" y1="481" x2="40" y2="481" stroke="silver"/>
<line x1="38" y1="477" x2="42" y2="477" stroke="silver"/>
<line x1="38" y1="473" x2="40" y2="473" stroke="silver"/>
<line x1="38" y1="469" x2="40" y2="469" stroke="silver"/>
<line x1="38" y1="465" x2="40" y2="465" stroke="silver"/>
<line x1="38" y1="461" x2="40" y2="461" stroke="silver"/>
<line x1="38" y1="457" x2="591" y2="457" stroke="silver"/>
<text x="10" y="461" font-family = "monospace" font-size="10px" font-weight="normal" fill="black">3000</text>
<line x1="38" y1="453" x2="40" y2="453" stroke="silver"/>
<line x1="38" y1="450" x2="40" y2="450" stroke="silver"/>
<line x1="38" y1="446" x2="40" y2="446" stroke="silver"/>
<line x1="38" y1="442" x2="40" y2="442" stroke="silver"/>
<line x1="38" y1="438" x2="42" y2="438" stroke="silver"/>
<line x1="38" y1="434" x2="40" y2="434" stroke="silver"/>
<line x1="38" y1="430" x2="40" y2="430" stroke="silver"/>
<line x1="38" y1="426" x2="40" y2="426" stroke="silver"/>
<line x1="38" y1="422" x2="40" y2="422" stroke="silver"/>
<line x1="38" y1="418" x2="591" y2="418" stroke="silver"/>
<text x="10" y="422" font-family = "monospace" font-size="10px" font-weight="normal" fill="black">4000</text>
<line x1="38" y1="414" x2="40" y2="414" stroke="silver"/>
<line x1="38" y1="410" x2="40" y2="410" stroke="silver"/>
<line x1="38" y1="406" x2="40" y2="406" stroke="silver"/>
<line x1="38" y1="402" x2="40" y2="402" stroke="silver"/>
<line x1="38" y1="398" x2="42" y2="398" stroke="silver"/>
<line x1="38" y1="394" x2="40" y2="394" stroke="silver"/>
<line x1="38" y1="391" x2="40" y2="391" stroke="silver"/>
<line x1="38" y1="387" x2="40" y2="387" stroke="silver"/>
<line x1="38" y1="383" x2="40" y2="383" stroke="silver"/>
<line x1="38" y1="379" x2="591" y2="379" stroke="silver"/>
<text x="10" y="383" font-family = "monospace" font-size="10px" font-weight="normal" fill="black">5000</text>
<line x1="38" y1="375" x2="40" y2="375" stroke="silver"/>
<line x1="38" y1="371" x2="40" y2="371" stroke="silver"/>
<line x1="38" y1="367" x2="40" y2="367" stroke="silver"/>
<line x1="38" y1="363" x2="40" y2="363" stroke="silver"/>
<line x1="38" y1="359" x2="42" y2="359" stroke="silver"/>
<line x1="38" y1="355" x2="40" y2="355" stroke="silver"/>
<line x1="38" y1="351" x2="40" y2="351" stroke="silver"/>
<line x1="38" y1="347" x2="40" y2="347" stroke="silver"/>
<line x1="38" y1="343" x2="40" y2="343" stroke="silver"/>
<line x1="38" y1="339" x2="591" y2="339" stroke="silver"/>
<text x="10" y="343" font-family = "monospace" font-size="10px" font-weight="normal" fill="black">6000</text>
<line x1="38" y1="335" x2="40" y2="335" stroke="silver"/>
<line x1="38" y1="331" x2="40" y2="331" stroke="silver"/>
<line x1="38" y1="328" x2="40" y2="328" stroke="silver"/>
<line x1="38" y1="324" x2="40" y2="324" stroke="silver"/>
<line x1="38" y1="320" x2="42" y2="320" stroke="silver"/>
<line x1="38" y1="316" x2="40" y2="316" stroke="silver"/>
<line x1="38" y1="312" x2="40" y2="312" stroke="silver"/>
<line x1="38" y1="308" x2="40" y2="308" stroke="silver"/>
<line x1="38" y1="304" x2="40" y2="304" stroke="silver"/>
<line x1="38" y1="300" x2="591" y2="300" stroke="silver"/>
<text x="10" y="304" font-family = "monospace" font-size="10px" font-weight="normal" fill="black">7000</text>
<line x1="38" y1="296" x2="40" y2="296" stroke="silver"/>
<line x1="38" y1="292" x2="40" y2="292" stroke="silver"/>
<line x1="38" y1="288" x2="40" y2="288" stroke="silver"/>
<line x1="38" y1="284" x2="40" y2="284" stroke="silver"/>
<line x1="38" y1="280" x2="42" y2="280" stroke="silver"/>
<line x1="38" y1="276" x2="40" y2="276" stroke="silver"/>
<line x1="38" y1="272" x2="40" y2="272" stroke="silver"/>
<line x1="38" y1="269" x2="40" y2="269" stroke="silver"/>
<line x1="38" y1="265" x2="40" y2="265" stroke="silver"/>
<line x1="38" y1="261" x2="591" y2="261" stroke="silver"/>
<text x="10" y="265" font-family = "monospace" font-size="10px" font-weight="normal" fill="black">8000</text>
<line x1="38" y1="257" x2="40" y2="257" stroke="silver"/>
<line x1="38" y1="253" x2="40" y2="253" stroke="silver"/>
<line x1="38" y1="249" x2="40" y2="249" stroke="silver"/>
<line x1="38" y1="245" x2="40" y2="245" stroke="silver"/>
<line x1="38" y1="241" x2="42" y2="241" stroke="silver"/>
<line x1="38" y1="237" x2="40" y2="237" stroke="silver"/>
<line x1="38" y1="233" x2="40" y2="233" stroke="silver"/>
<line x1="38" y1="229" x2="40" y2="229" stroke="silver"/>
<line x1="38" y1="225" x2="40" y2="225" stroke="silver"/>
<line x1="38" y1="221" x2="591" y2="221" stroke="silver"/>
<text x="10" y="225" font-family = "monospace" font-size="10px" font-weight="normal" fill="black">9000</text>
<line x1="38" y1="217" x2="40" y2="217" stroke="silver"/>
<line x1="38" y1="213" x2="40" y2="213" stroke="silver"/>
<line x1="38" y1="209" x2="40" y2="209" stroke="silver"/>
<line x1="38" y1="206" x2="40" y2="206" stroke="silver"/>
<line x1="38" y1="202" x2="42" y2="202" stroke="silver"/>
<line x1="38" y1="198" x2="40" y2="198" stroke="silver"/>
<line x1="38" y1="194" x2="40" y2="194" stroke="silver"/>
<line x1="38" y1="190" x2="40" y2="190" stroke="silver"/>
<line x1="38" y1="186" x2="40" y2="186" stroke="silver"/>
<line x1="38" y1="182" x2="591" y2="182" stroke="silver"/>
<text x="5" y="186" font-family = "monospace" font-size="10px" font-weight="normal" fill="black">10000</text>
<line x1="38" y1="178" x2="40" y2="178" stroke="silver"/>
<line x1="38" y1="174" x2="40" y2="174" stroke="silver"/>
<line x1="38" y1="170" x2="40" y2="170" stroke="silver"/>
<line x1="38" y1="166" x2="40" y2="166" stroke="silver"/>
<line x1="38" y1="162" x2="42" y2="162" stroke="silver"/>
<line x1="38" y1="158" x2="40" y2="158" stroke="silver"/>
<line x1="38" y1="154" x2="40" y2="154" stroke="silver"/>
<line x1="38" y1="150" x2="40" y2="150" stroke="silver"/>
<line x1="38" y1="147" x2="40" y2="147" stroke="silver"/>
<line x1="38" y1="143" x2="591" y2="143" stroke="silver"/>
<text x="5" y="147" font-family = "monospace" font-size="10px" font-weight="normal" fill="black">11000</text>
<line x1="38" y1="139" x2="40" y2="139" stroke="silver"/>
<line x1="38" y1="135" x2="40" y2="135" stroke="silver"/>
<line x1="38" y1="131" x2="40" y2="131" stroke="silver"/>
<line x1="38" y1="127" x2="40" y2="127" stroke="silver"/>
<line x1="38" y1="123" x2="42" y2="123" stroke="silver"/>
<line x1="38" y1="119" x2="40" y2="119" stroke="silver"/>
<line x1="38" y1="115" x2="40" y2="115" stroke="silver"/>
<line x1="38" y1="111" x2="40" y2="111" stroke="silver"/>
<line x1="38" y1="107" x2="40" y2="107" stroke="silver"/>
<line x1="38" y1="103" x2="591" y2="103" stroke="silver"/>
<text x="5" y="107" font-family = "monospace" font-size="10px" font-weight="normal" fill="black">12000</text>
<line x1="38" y1="99" x2="40" y2="99" stroke="silver"/>
<line x1="38" y1="95" x2="40" y2="95" stroke="silver"/>
<line x1="38" y1="91" x2="40" y2="91" stroke="silver"/>
<line x1="38" y1="87" x2="40" y2="87" stroke="silver"/>
<line x1="38" y1="84" x2="42" y2="84" stroke="silver"/>
<line x1="38" y1="80" x2="40" y2="80" stroke="silver"/>
<line x1="38" y1="76" x2="40" y2="76" stroke="silver"/>
<line x1="38" y1="72" x2="40" y2="72" stroke="silver"/>
<line x1="38" y1="68" x2="40" y2="68" stroke="silver"/>
<line x1="38" y1="64" x2="591" y2="64" stroke="silver"/>
<text x="5" y="68" font-family = "monospace" font-size="10px" font-weight="normal" fill="black">13000</text>
<line x1="38" y1="60" x2="40" y2="60" stroke="silver"/>
<line x1="38" y1="56" x2="40" y2="56" stroke="silver"/>
<line x1="38" y1="52" x2="40" y2="52" stroke="silver"/>
<line x1="38" y1="48" x2="40" y2="48" stroke="silver"/>
<line x1="38" y1="44" x2="42" y2="44" stroke="silver"/>
<line x1="38" y1="40" x2="40" y2="40" stroke="silver"/>
<line x1="38" y1="36" x2="40" y2="36" stroke="silver"/>
<line x1="38" y1="32" x2="40" y2="32" stroke="silver"/>
<line x1="38" y1="28" x2="40" y2="28" stroke="silver"/>
<text x="5" y="28" font-family = "monospace" font-size="10px" font-weight="normal" fill="black">14000</text>
<rect x="47" y="556" width="5" height="19" fill="cadetblue"/>
<rect x="47" y="549" width="4" height="7" fill="cadetblue"/>
<rect x="47" y="545" width="3" height="4" fill="cadetblue"/>
<rect x="57" y="556" width="5" height="19" fill="brown"/>
<rect x="57" y="554" width="4" height="2" fill="brown"/>
<rect x="57" y="551" width="3" height="3" fill="brown"/>
<rect x="67" y="530" width="5" height="45" fill="darkorchid"/>
<rect x="67" y="525" width="4" height="5" fill="darkorchid"/>
<rect x="67" y="522" width="3" height="3" fill="darkorchid"/>
<rect x="77" y="569" width="5" height="6" fill="red"/>
<rect x="77" y="569" width="4" height="0" fill="red"/>
<rect x="77" y="568" width="3" height="1" fill="red"/>
<text x="60" y="585" font-family = "monospace" font-size="10px" font-weight="normal" fill="black">1</text>
<rect x="92" y="549" width="5" height="26" fill="cadetblue"/>
<rect x="92" y="544" width="4" height="5" fill="cadetblue"/>
<rect x="92" y="541" width="3" height="3" fill="cadetblue"/>
<rect x="102" y="548" width="5" height="27" fill="brown"/>
<rect x="102" y="543" width="4" height="5" fill="brown"/>
<rect x="102" y="537" width="3" height="6" fill="brown"/>
<rect x="112" y="549" width="5" height="26" fill="darkorchid"/>
<rect x="112" y="545" width="4" height="4" fill="darkorchid"/>
<rect x="112" y="538" width="3" height="7" fill="darkorchid"/>
<rect x="122" y="568" width="5" height="7" fill="red"/>
<rect x="122" y="568" width="4" height="0" fill="red"/>
<rect x="122" y="568" width="3" height="0" fill="red"/>
<text x="105" y="585" font-family = "monospace" font-size="10px" font-weight="normal" fill="black">2</text>
<rect x="137" y="532" width="5" height="43" fill="cadetblue"/>
<rect x="137" y="524" width="4" height="8" fill="cadetblue"/>
<rect x="137" y="510" width="3" height="14" fill="cadetblue"/>
<rect x="147" y="539" width="5" height="36" fill="brown"/>
<rect x="147" y="534" width="4" height="5" fill="brown"/>
<rect x="147" y="530" width="3" height="4" fill="brown"/>
<rect x="157" y="538" width="5" height="37" fill="darkorchid"/>
<rect x="157" y="532" width="4" height="6" fill="darkorchid"/>
<rect x="157" y="525" width="3" height="7" fill="darkorchid"/>
<rect x="167" y="573" width="5" height="2" fill="red"/>
<rect x="167" y="573" width="4" height="0" fill="red"/>
<rect x="167" y="573" width="3" height="0" fill="red"/>
<text x="150" y="585" font-family = "monospace" font-size="10px" font-weight="normal" fill="black">3</text>
<rect x="182" y="526" width="5" height="49" fill="cadetblue"/>
<rect x="182" y="521" width="4" height="5" fill="cadetblue"/>
<rect x="182" y="515" width="3" height="6" fill="cadetblue"/>
<rect x="192" y="514" width="5" height="61" fill="brown"/>
<rect x="192" y="503" width="4" height="11" fill="brown"/>
<rect x="192" y="487" width="3" height="16" fill="brown"/>
<rect x="202" y="526" width="5" height="49" fill="darkorchid"/>
<rect x="202" y="519" width="4" height="7" fill="darkorchid"/>
<rect x="202" y="513" width="3" height="6" fill="darkorchid"/>
<rect x="212" y="573" width="5" height="2" fill="red"/>
<rect x="212" y="573" width="4" height="0" fill="red"/>
<rect x="212" y="573" width="3" height="0" fill="red"/>
<text x="195" y="585" font-family = "monospace" font-size="10px" font-weight="normal" fill="black">4</text>
<rect x="227" y="510" width="5" height="65" fill="cadetblue"/>
<rect x="227" y="500" width="4" height="10" fill="cadetblue"/>
<rect x="227" y="487" width="3" height="13" fill="cadetblue"/>
<rect x="237" y="388" width="5" height="187" fill="brown"/>
<rect x="237" y="356" width="4" height="32" fill="brown"/>
<rect x="237" y="321" width="3" height="35" fill="brown"/>
<rect x="247" y="411" width="5" height="164" fill="darkorchid"/>
<rect x="247" y="368" width="4" height="43" fill="darkorchid"/>
<rect x="247" y="338" width="3" height="30" fill="darkorchid"/>
<rect x="257" y="574" width="5" height="1" fill="red"/>
<rect x="257" y="574" width="4" height="0" fill="red"/>
<rect x="257" y="574" width="3" height="0" fill="red"/>
<text x="240" y="585" font-family = "monospace" font-size="10px" font-weight="normal" fill="black">5</text>
<rect x="272" y="368" width="5" height="207" fill="cadetblue"/>
<rect x="272" y="306" width="4" height="62" fill="cadetblue"/>
<rect x="272" y="268" width="3" height="38" fill="cadetblue"/>
<rect x="282" y="498" width="5" height="77" fill="brown"/>
<rect x="282" y="433" width="4" height="65" fill="brown"/>
<rect x="282" y="313" width="3" height="120" fill="brown"/>
<rect x="292" y="364" width="5" height="211" fill="darkorchid"/>
<rect x="292" y="332" width="4" height="32" fill="darkorchid"/>
<rect x="292" y="310" width="3" height="22" fill="darkorchid"/>
<rect x="302" y="574" width="5" height="1" fill="red"/>
<rect x="302" y="574" width="4" height="0" fill="red"/>
<rect x="302" y="574" width="3" height="0" fill="red"/>
<text x="285" y="585" font-family = "monospace" font-size="10px" font-weight="normal" fill="black">6</text>
<rect x="317" y="482" width="5" height="93" fill="cadetblue"/>
<rect x="317" y="469" width="4" height="13" fill="cadetblue"/>
<rect x="317" y="453" width="3" height="16" fill="cadetblue"/>
<rect x="327" y="481" width="5" height="94" fill="brown"/>
<rect x="327" y="469" width="4" height="12" fill="brown"/>
<rect x="327" y="451" width="3" height="18" fill="brown"/>
<rect x="337" y="479" width="5" height="96" fill="darkorchid"/>
<rect x="337" y="469" width="4" height="10" fill="darkorchid"/>
<rect x="337" y="456" width="3" height="13" fill="darkorchid"/>
<rect x="347" y="574" width="5" height="1" fill="red"/>
<rect x="347" y="574" width="4" height="0" fill="red"/>
<rect x="347" y="574" width="3" height="0" fill="red"/>
<text x="330" y="585" font-family = "monospace" font-size="10px" font-weight="normal" fill="black">7</text>
<rect x="362" y="467" width="5" height="108" fill="cadetblue"/>
<rect x="362" y="452" width="4" height="15" fill="cadetblue"/>
<rect x="362" y="431" width="3" height="21" fill="cadetblue"/>
<rect x="372" y="460" width="5" height="115" fill="brown"/>
<rect x="372" y="217" width="4" height="243" fill="brown"/>
<rect x="372" y="148" width="3" height="69" fill="brown"/>
<rect x="382" y="467" width="5" height="108" fill="darkorchid"/>
<rect x="382" y="459" width="4" height="8" fill="darkorchid"/>
<rect x="382" y="454" width="3" height="5" fill="darkorchid"/>
<rect x="392" y="574" width="5" height="1" fill="red"/>
<rect x="392" y="574" width="4" height="0" fill="red"/>
<rect x="392" y="573" width="3" height="1" fill="red"/>
<text x="375" y="585" font-family = "monospace" font-size="10px" font-weight="normal" fill="black">8</text>
<rect x="407" y="235" width="5" height="340" fill="cadetblue"/>
<rect x="407" y="198" width="4" height="37" fill="cadetblue"/>
<rect x="407" y="171" width="3" height="27" fill="cadetblue"/>
<rect x="417" y="450" width="5" height="125" fill="brown"/>
<rect x="417" y="441" width="4" height="9" fill="brown"/>
<rect x="417" y="429" width="3" height="12" fill="brown"/>
<rect x="427" y="233" width="5" height="342" fill="darkorchid"/>
<rect x="427" y="196" width="4" height="37" fill="darkorchid"/>
<rect x="427" y="171" width="3" height="25" fill="darkorchid"/>
<rect x="437" y="574" width="5" height="1" fill="red"/>
<rect x="437" y="573" width="4" height="1" fill="red"/>
<rect x="437" y="573" width="3" height="0" fill="red"/>
<text x="420" y="585" font-family = "monospace" font-size="10px" font-weight="normal" fill="black">9</text>
<rect x="452" y="435" width="5" height="140" fill="cadetblue"/>
<rect x="452" y="424" width="4" height="11" fill="cadetblue"/>
<rect x="452" y="413" width="3" height="11" fill="cadetblue"/>
<rect x="462" y="432" width="5" height="143" fill="brown"/>
<rect x="462" y="420" width="4" height="12" fill="brown"/>
<rect x="462" y="406" width="3" height="14" fill="brown"/>
<rect x="472" y="431" width="5" height="144" fill="darkorchid"/>
<rect x="472" y="414" width="4" height="17" fill="darkorchid"/>
<rect x="472" y="400" width="3" height="14" fill="darkorchid"/>
<rect x="482" y="572" width="5" height="3" fill="red"/>
<rect x="482" y="572" width="4" height="0" fill="red"/>
<rect x="482" y="571" width="3" height="1" fill="red"/>
<text x="462" y="585" font-family = "monospace" font-size="10px" font-weight="normal" fill="black">10</text>
<rect x="497" y="417" width="5" height="158" fill="cadetblue"/>
<rect x="497" y="405" width="4" height="12" fill="cadetblue"/>
<rect x="497" y="393" width="3" height="12" fill="cadetblue"/>
<rect x="507" y="412" width="5" height="163" fill="brown"/>
<rect x="507" y="388" width="4" height="24" fill="brown"/>
<rect x="507" y="324" width="3" height="64" fill="brown"/>
<rect x="517" y="206" width="5" height="369" fill="darkorchid"/>
<rect x="517" y="108" width="4" height="98" fill="darkorchid"/>
<rect x="517" y="35" width="3" height="73" fill="darkorchid"/>
<rect x="527" y="572" width="5" height="3" fill="red"/>
<rect x="527" y="572" width="4" height="0" fill="red"/>
<rect x="527" y="572" width="3" height="0" fill="red"/>
<text x="507" y="585" font-family = "monospace" font-size="10px" font-weight="normal" fill="black">11</text>
<rect x="542" y="391" width="5" height="184" fill="cadetblue"/>
<rect x="542" y="272" width="4" height="119" fill="cadetblue"/>
<rect x="542" y="39" width="3" height="233" fill="cadetblue"/>
<rect x="552" y="398" width="5" height="177" fill="brown"/>
<rect x="552" y="354" width="4" height="44" fill="brown"/>
<rect x="552" y="281" width="3" height="73" fill="brown"/>
<rect x="562" y="395" width="5" height="180" fill="darkorchid"/>
<rect x="562" y="374" width="4" height="21" fill="darkorchid"/>
<rect x="562" y="339" width="3" height="35" fill="darkorchid"/>
<rect x="572" y="572" width="5" height="3" fill="red"/>
<rect x="572" y="572" width="4" height="0" fill="red"/>
<rect x="572" y="571" width="3" height="1" fill="red"/>
<text x="552" y="585" font-family = "monospace" font-size="10px" font-weight="normal" fill="black">12</text>
<rect x="37" y="590" width="10" height="8" fill="cadetblue"/>
<text x="50" y="598" font-family = "monospace" font-size="10px" font-weight="normal" fill="black">integralThreadLock</text>
<rect x="159" y="590" width="10" height="8" fill="brown"/>
<text x="172" y="598" font-family = "monospace" font-size="10px" font-weight="normal" fill="black">integralThreadStNoLock</text>
<rect x="303" y="590" width="10" height="8" fill="darkorchid"/>
<text x="316" y="598" font-family = "monospace" font-size="10px" font-weight="normal" fill="black">integralThreadStLock</text>
<rect x="436" y="590" width="10" height="8" fill="red"/>
<text x="449" y="598" font-family = "monospace" font-size="10px" font-weight="normal" fill="black">integralOpenMP</text>
</svg>