<?xml version = "1.0" encoding = "utf-8" ?>
<svg 
xmlns = "http://www.w3.org/2000/svg"
width = "547"
height = "600"
version = "1.1">
<text x="182" y="16" font-family = "monospace" font-size="16px" font-weight="bold" fill="brown">Гранулярность 100</text>
<text x="26" y="16" font-family = "monospace" font-size="10px" font-weight="normal" fill="black">Tмкс</text>
<text x="10" y="585" font-family = "monospace" font-size="10px" font-weight="normal" fill="black">Threads</text>
<rect x="32" y="24" width="515" height="551" stroke="black" fill="white"/>
<line x1="33" y1="572" x2="35" y2="572" stroke="silver"/>
<line x1="33" y1="569" x2="35" y2="569" stroke="silver"/>
<line x1="33" y1="566" x2="35" y2="566" stroke="silver"/>
<line x1="33" y1="563" x2="35" y2="563" stroke="silver"/>
<line x1="33" y1="560" x2="37" y2="560" stroke="silver"/>
<line x1="33" y1="557" x2="35" y2="557" stroke="silver"/>
<line x1="33" y1="554" x2="35" y2="554" stroke="silver"/>
<line x1="33" y1="551" x2="35" y2="551" stroke="silver"/>
<line x1="33" y1="548" x2="35" y2="548" stroke="silver"/>
<line x1="33" y1="545" x2="546" y2="545" stroke="silver"/>
<text x="11" y="549" font-family = "monospace" font-size="10px" font-weight="normal" fill="black">500</text>
<line x1="33" y1="542" x2="35" y2="542" stroke="silver"/>
<line x1="33" y1="539" x2="35" y2="539" stroke="silver"/>
<line x1="33" y1="536" x2="35" y2="536" stroke="silver"/>
<line x1="33" y1="533" x2="35" y2="533" stroke="silver"/>
<line x1="33" y1="530" x2="37" y2="530" stroke="silver"/>
<line x1="33" y1="527" x2="35" y2="527" stroke="silver"/>
<line x1="33" y1="523" x2="35" y2="523" stroke="silver"/>
<line x1="33" y1="520" x2="35" y2="520" stroke="silver"/>
<line x1="33" y1="517" x2="35" y2="517" stroke="silver"/>
<line x1="33" y1="514" x2="546" y2="514" stroke="silver"/>
<text x="5" y="518" font-family = "monospace" font-size="10px" font-weight="normal" fill="black">1000</text>
<line x1="33" y1="511" x2="35" y2="511" stroke="silver"/>
<line x1="33" y1="508" x2="35" y2="508" stroke="silver"/>
<line x1="33" y1="505" x2="35" y2="505" stroke="silver"/>
<line x1="33" y1="502" x2="35" y2="502" stroke="silver"/>
<line x1="33" y1="499" x2="37" y2="499" stroke="silver"/>
<line x1="33" y1="496" x2="35" y2="496" stroke="silver"/>
<line x1="33" y1="493" x2="35" y2="493" stroke="silver"/>
<line x1="33" y1="490" x2="35" y2="490" stroke="silver"/>
<line x1="33" y1="487" x2="35" y2="487" stroke="silver"/>
<line x1="33" y1="484" x2="546" y2="484" stroke="silver"/>
<text x="5" y="488" font-family = "monospace" font-size="10px" font-weight="normal" fill="black">1500</text>
<line x1="33" y1="481" x2="35" y2="481" stroke="silver"/>
<line x1="33" y1="478" x2="35" y2="478" stroke="silver"/>
<line x1="33" y1="474" x2="35" y2="474" stroke="silver"/>
<line x1="33" y1="471" x2="35" y2="471" stroke="silver"/>
<line x1="33" y1="468" x2="37" y2="468" stroke="silver"/>
<line x1="33" y1="465" x2="35" y2="465" stroke="silver"/>
<line x1="33" y1="462" x2="35" y2="462" stroke="silver"/>
<line x1="33" y1="459" x2="35" y2="459" stroke="silver"/>
<line x1="33" y1="456" x2="35" y2="456" stroke="silver"/>
<line x1="33" y1="453" x2="546" y2="453" stroke="silver"/>
<text x="5" y="457" font-family = "monospace" font-size="10px" font-weight="normal" fill="black">2000</text>
<line x1="33" y1="450" x2="35" y2="450" stroke="silver"/>
<line x1="33" y1="447" x2="35" y2="447" stroke="silver"/>
<line x1="33" y1="444" x2="35" y2="444" stroke="silver"/>
<line x1="33" y1="441" x2="35" y2="441" stroke="silver"/>
<line x1="33" y1="438" x2="37" y2="438" stroke="silver"/>
<line x1="33" y1="435" x2="35" y2="435" stroke="silver"/>
<line x1="33" y1="432" x2="35" y2="432" stroke="silver"/>
<line x1="33" y1="429" x2="35" y2="429" stroke="silver"/>
<line x1="33" y1="426" x2="35" y2="426" stroke="silver"/>
<line x1="33" y1="422" x2="546" y2="422" stroke="silver"/>
<text x="5" y="426" font-family = "monospace" font-size="10px" font-weight="normal" fill="black">2500</text>
<line x1="33" y1="419" x2="35" y2="419" stroke="silver"/>
<line x1="33" y1="416" x2="35" y2="416" stroke="silver"/>
<line x1="33" y1="413" x2="35" y2="413" stroke="silver"/>
<line x1="33" y1="410" x2="35" y2="410" stroke="silver"/>
<line x1="33" y1="407" x2="37" y2="407" stroke="silver"/>
<line x1="33" y1="404" x2="35" y2="404" stroke="silver"/>
<line x1="33" y1="401" x2="35" y2="401" stroke="silver"/>
<line x1="33" y1="398" x2="35" y2="398" stroke="silver"/>
<line x1="33" y1="395" x2="35" y2="395" stroke="silver"/>
<line x1="33" y1="392" x2="546" y2="392" stroke="silver"/>
<text x="5" y="396" font-family = "monospace" font-size="10px" font-weight="normal" fill="black">3000</text>
<line x1="33" y1="389" x2="35" y2="389" stroke="silver"/>
<line x1="33" y1="386" x2="35" y2="386" stroke="silver"/>
<line x1="33" y1="383" x2="35" y2="383" stroke="silver"/>
<line x1="33" y1="380" x2="35" y2="380" stroke="silver"/>
<line x1="33" y1="377" x2="37" y2="377" stroke="silver"/>
<line x1="33" y1="373" x2="35" y2="373" stroke="silver"/>
<line x1="33" y1="370" x2="35" y2="370" stroke="silver"/>
<line x1="33" y1="367" x2="35" y2="367" stroke="silver"/>
<line x1="33" y1="364" x2="35" y2="364" stroke="silver"/>
<line x1="33" y1="361" x2="546" y2="361" stroke="silver"/>
<text x="5" y="365" font-family = "monospace" font-size="10px" font-weight="normal" fill="black">3500</text>
<line x1="33" y1="358" x2="35" y2="358" stroke="silver"/>
<line x1="33" y1="355" x2="35" y2="355" stroke="silver"/>
<line x1="33" y1="352" x2="35" y2="352" stroke="silver"/>
<line x1="33" y1="349" x2="35" y2="349" stroke="silver"/>
<line x1="33" y1="346" x2="37" y2="346" stroke="silver"/>
<line x1="33" y1="343" x2="35" y2="343" stroke="silver"/>
<line x1="33" y1="340" x2="35" y2="340" stroke="silver"/>
<line x1="33" y1="337" x2="35" y2="337" stroke="silver"/>
<line x1="33" y1="334" x2="35" y2="334" stroke="silver"/>
<line x1="33" y1="331" x2="546" y2="331" stroke="silver"/>
<text x="5" y="335" font-family = "monospace" font-size="10px" font-weight="normal" fill="black">4000</text>
<line x1="33" y1="328" x2="35" y2="328" stroke="silver"/>
<line x1="33" y1="324" x2="35" y2="324" stroke="silver"/>
<line x1="33" y1="321" x2="35" y2="321" stroke="silver"/>
<line x1="33" y1="318" x2="35" y2="318" stroke="silver"/>
<line x1="33" y1="315" x2="37" y2="315" stroke="silver"/>
<line x1="33" y1="312" x2="35" y2="312" stroke="silver"/>
<line x1="33" y1="309" x2="35" y2="309" stroke="silver"/>
<line x1="33" y1="306" x2="35" y2="306" stroke="silver"/>
<line x1="33" y1="303" x2="35" y2="303" stroke="silver"/>
<line x1="33" y1="300" x2="546" y2="300" stroke="silver"/>
<text x="5" y="304" font-family = "monospace" font-size="10px" font-weight="normal" fill="black">4500</text>
<line x1="33" y1="297" x2="35" y2="297" stroke="silver"/>
<line x1="33" y1="294" x2="35" y2="294" stroke="silver"/>
<line x1="33" y1="291" x2="35" y2="291" stroke="silver"/>
<line x1="33" y1="288" x2="35" y2="288" stroke="silver"/>
<line x1="33" y1="285" x2="37" y2="285" stroke="silver"/>
<line x1="33" y1="282" x2="35" y2="282" stroke="silver"/>
<line x1="33" y1="279" x2="35" y2="279" stroke="silver"/>
<line x1="33" y1="276" x2="35" y2="276" stroke="silver"/>
<line x1="33" y1="272" x2="35" y2="272" stroke="silver"/>
<line x1="33" y1="269" x2="546" y2="269" stroke="silver"/>
<text x="5" y="273" font-family = "monospace" font-size="10px" font-weight="normal" fill="black">5000</text>
<line x1="33" y1="266" x2="35" y2="266" stroke="silver"/>
<line x1="33" y1="263" x2="35" y2="263" stroke="silver"/>
<line x1="33" y1="260" x2="35" y2="260" stroke="silver"/>
<line x1="33" y1="257" x2="35" y2="257" stroke="silver"/>
<line x1="33" y1="254" x2="37" y2="254" stroke="silver"/>
<line x1="33" y1="251" x2="35" y2="251" stroke="silver"/>
<line x1="33" y1="248" x2="35" y2="248" stroke="silver"/>
<line x1="33" y1="245" x2="35" y2="245" stroke="silver"/>
<line x1="33" y1="242" x2="35" y2="242" stroke="silver"/>
<line x1="33" y1="239" x2="546" y2="239" stroke="silver"/>
<text x="5" y="243" font-family = "monospace" font-size="10px" font-weight="normal" fill="black">5500</text>
<line x1="33" y1="236" x2="35" y2="236" stroke="silver"/>
<line x1="33" y1="233" x2="35" y2="233" stroke="silver"/>
<line x1="33" y1="230" x2="35" y2="230" stroke="silver"/>
<line x1="33" y1="227" x2="35" y2="227" stroke="silver"/>
<line x1="33" y1="223" x2="37" y2="223" stroke="silver"/>
<line x1="33" y1="220" x2="35" y2="220" stroke="silver"/>
<line x1="33" y1="217" x2="35" y2="217" stroke="silver"/>
<line x1="33" y1="214" x2="35" y2="214" stroke="silver"/>
<line x1="33" y1="211" x2="35" y2="211" stroke="silver"/>
<line x1="33" y1="208" x2="546" y2="208" stroke="silver"/>
<text x="5" y="212" font-family = "monospace" font-size="10px" font-weight="normal" fill="black">6000</text>
<line x1="33" y1="205" x2="35" y2="205" stroke="silver"/>
<line x1="33" y1="202" x2="35" y2="202" stroke="silver"/>
<line x1="33" y1="199" x2="35" y2="199" stroke="silver"/>
<line x1="33" y1="196" x2="35" y2="196" stroke="silver"/>
<line x1="33" y1="193" x2="37" y2="193" stroke="silver"/>
<line x1="33" y1="190" x2="35" y2="190" stroke="silver"/>
<line x1="33" y1="187" x2="35" y2="187" stroke="silver"/>
<line x1="33" y1="184" x2="35" y2="184" stroke="silver"/>
<line x1="33" y1="181" x2="35" y2="181" stroke="silver"/>
<line x1="33" y1="178" x2="546" y2="178" stroke="silver"/>
<text x="5" y="182" font-family = "monospace" font-size="10px" font-weight="normal" fill="black">6500</text>
<line x1="33" y1="174" x2="35" y2="174" stroke="silver"/>
<line x1="33" y1="171" x2="35" y2="171" stroke="silver"/>
<line x1="33" y1="168" x2="35" y2="168" stroke="silver"/>
<line x1="33" y1="165" x2="35" y2="165" stroke="silver"/>
<line x1="33" y1="162" x2="37" y2="162" stroke="silver"/>
<line x1="33" y1="159" x2="35" y2="159" stroke="silver"/>
<line x1="33" y1="156" x2="35" y2="156" stroke="silver"/>
<line x1="33" y1="153" x2="35" y2="153" stroke="silver"/>
<line x1="33" y1="150" x2="35" y2="150" stroke="silver"/>
<line x1="33" y1="147" x2="546" y2="147" stroke="silver"/>
<text x="5" y="151" font-family = "monospace" font-size="10px" font-weight="normal" fill="black">7000</text>
<line x1="33" y1="144" x2="35" y2="144" stroke="silver"/>
<line x1="33" y1="141" x2="35" y2="141" stroke="silver"/>
<line x1="33" y1="138" x2="35" y2="138" stroke="silver"/>
<line x1="33" y1="135" x2="35" y2="135" stroke="silver"/>
<line x1="33" y1="132" x2="37" y2="132" stroke="silver"/>
<line x1="33" y1="129" x2="35" y2="129" stroke="silver"/>
<line x1="33" y1="126" x2="35" y2="126" stroke="silver"/>
<line x1="33" y1="122" x2="35" y2="122" stroke="silver"/>
<line x1="33" y1="119" x2="35" y2="119" stroke="silver"/>
<line x1="33" y1="116" x2="546" y2="116" stroke="silver"/>
<text x="5" y="120" font-family = "monospace" font-size="10px" font-weight="normal" fill="black">7500</text>
<line x1="33" y1="113" x2="35" y2="113" stroke="silver"/>
<line x1="33" y1="110" x2="35" y2="110" stroke="silver"/>
<line x1="33" y1="107" x2="35" y2="107" stroke="silver"/>
<line x1="33" y1="104" x2="35" y2="104" stroke="silver"/>
<line x1="33" y1="101" x2="37" y2="101" stroke="silver"/>
<line x1="33" y1="98" x2="35" y2="98" stroke="silver"/>
<line x1="33" y1="95" x2="35" y2="95" stroke="silver"/>
<line x1="33" y1="92" x2="35" y2="92" stroke="silver"/>
<line x1="33" y1="89" x2="35" y2="89" stroke="silver"/>
<line x1="33" y1="86" x2="546" y2="86" stroke="silver"/>
<text x="5" y="90" font-family = "monospace" font-size="10px" font-weight="normal" fill="black">8000</text>
<line x1="33" y1="83" x2="35" y2="83" stroke="silver"/>
<line x1="33" y1="80" x2="35" y2="80" stroke="silver"/>
<line x1="33" y1="77" x2="35" y2="77" stroke="silver"/>
<line x1="33" y1="73" x2="35" y2="73" stroke="silver"/>
<line x1="33" y1="70" x2="37" y2="70" stroke="silver"/>
<line x1="33" y1="67" x2="35" y2="67" stroke="silver"/>
<line x1="33" y1="64" x2="35" y2="64" stroke="silver"/>
<line x1="33" y1="61" x2="35" y2="61" stroke="silver"/>
<line x1="33" y1="58" x2="35" y2="58" stroke="silver"/>
<line x1="33" y1="55" x2="546" y2="55" stroke="silver"/>
<text x="5" y="59" font-family = "monospace" font-size="10px" font-weight="normal" fill="black">8500</text>
<line x1="33" y1="52" x2="35" y2="52" stroke="silver"/>
<line x1="33" y1="49" x2="35" y2="49" stroke="silver"/>
<line x1="33" y1="46" x2="35" y2="46" stroke="silver"/>
<line x1="33" y1="43" x2="35" y2="43" stroke="silver"/>
<line x1="33" y1="40" x2="37" y2="40" stroke="silver"/>
<line x1="33" y1="37" x2="35" y2="37" stroke="silver"/>
<line x1="33" y1="34" x2="35" y2="34" stroke="silver"/>
<line x1="33" y1="31" x2="35" y2="31" stroke="silver"/>
<line x1="33" y1="28" x2="35" y2="28" stroke="silver"/>
<text x="5" y="28" font-family = "monospace" font-size="10px" font-weight="normal" fill="black">9000</text>
<rect x="42" y="559" width="5" height="16" fill="cadetblue"/>
<rect x="42" y="555" width="4" height="4" fill="cadetblue"/>
<rect x="42" y="547" width="3" height="8" fill="cadetblue"/>
<rect x="52" y="544" width="5" height="31" fill="cadetblue"/>
<rect x="52" y="537" width="4" height="7" fill="cadetblue"/>
<rect x="52" y="531" width="3" height="6" fill="cadetblue"/>
<rect x="62" y="535" width="5" height="40" fill="cadetblue"/>
<rect x="62" y="531" width="4" height="4" fill="cadetblue"/>
<rect x="62" y="527" width="3" height="4" fill="cadetblue"/>
<rect x="72" y="518" width="5" height="57" fill="cadetblue"/>
<rect x="72" y="505" width="4" height="13" fill="cadetblue"/>
<rect x="72" y="486" width="3" height="19" fill="cadetblue"/>
<rect x="82" y="509" width="5" height="66" fill="cadetblue"/>
<rect x="82" y="497" width="4" height="12" fill="cadetblue"/>
<rect x="82" y="484" width="3" height="13" fill="cadetblue"/>
<rect x="92" y="500" width="5" height="75" fill="cadetblue"/>
<rect x="92" y="488" width="4" height="12" fill="cadetblue"/>
<rect x="92" y="481" width="3" height="7" fill="cadetblue"/>
<rect x="102" y="474" width="5" height="101" fill="cadetblue"/>
<rect x="102" y="456" width="4" height="18" fill="cadetblue"/>
<rect x="102" y="437" width="3" height="19" fill="cadetblue"/>
<rect x="112" y="471" width="5" height="104" fill="cadetblue"/>
<rect x="112" y="456" width="4" height="15" fill="cadetblue"/>
<rect x="112" y="447" width="3" height="9" fill="cadetblue"/>
<rect x="122" y="449" width="5" height="126" fill="cadetblue"/>
<rect x="122" y="424" width="4" height="25" fill="cadetblue"/>
<rect x="122" y="407" width="3" height="17" fill="cadetblue"/>
<rect x="132" y="446" width="5" height="129" fill="cadetblue"/>
<rect x="132" y="421" width="4" height="25" fill="cadetblue"/>
<rect x="132" y="405" width="3" height="16" fill="cadetblue"/>
<rect x="142" y="140" width="5" height="435" fill="cadetblue"/>
<rect x="142" y="94" width="4" height="46" fill="cadetblue"/>
<rect x="142" y="37" width="3" height="57" fill="cadetblue"/>
<rect x="152" y="387" width="5" height="188" fill="cadetblue"/>
<rect x="152" y="365" width="4" height="22" fill="cadetblue"/>
<rect x="152" y="331" width="3" height="34" fill="cadetblue"/>
<text x="84" y="585" font-family = "monospace" font-size="10px" font-weight="normal" fill="black">1..12</text>
<rect x="167" y="559" width="5" height="16" fill="brown"/>
<rect x="167" y="556" width="4" height="3" fill="brown"/>
<rect x="167" y="553" width="3" height="3" fill="brown"/>
<rect x="177" y="548" width="5" height="27" fill="brown"/>
<rect x="177" y="545" width="4" height="3" fill="brown"/>
<rect x="177" y="542" width="3" height="3" fill="brown"/>
<rect x="187" y="535" width="5" height="40" fill="brown"/>
<rect x="187" y="532" width="4" height="3" fill="brown"/>
<rect x="187" y="528" width="3" height="4" fill="brown"/>
<rect x="197" y="522" width="5" height="53" fill="brown"/>
<rect x="197" y="518" width="4" height="4" fill="brown"/>
<rect x="197" y="512" width="3" height="6" fill="brown"/>
<rect x="207" y="510" width="5" height="65" fill="brown"/>
<rect x="207" y="499" width="4" height="11" fill="brown"/>
<rect x="207" y="492" width="3" height="7" fill="brown"/>
<rect x="217" y="490" width="5" height="85" fill="brown"/>
<rect x="217" y="470" width="4" height="20" fill="brown"/>
<rect x="217" y="441" width="3" height="29" fill="brown"/>
<rect x="227" y="341" width="5" height="234" fill="brown"/>
<rect x="227" y="302" width="4" height="39" fill="brown"/>
<rect x="227" y="279" width="3" height="23" fill="brown"/>
<rect x="237" y="472" width="5" height="103" fill="brown"/>
<rect x="237" y="456" width="4" height="16" fill="brown"/>
<rect x="237" y="446" width="3" height="10" fill="brown"/>
<rect x="247" y="453" width="5" height="122" fill="brown"/>
<rect x="247" y="439" width="4" height="14" fill="brown"/>
<rect x="247" y="427" width="3" height="12" fill="brown"/>
<rect x="257" y="429" width="5" height="146" fill="brown"/>
<rect x="257" y="409" width="4" height="20" fill="brown"/>
<rect x="257" y="389" width="3" height="20" fill="brown"/>
<rect x="267" y="434" width="5" height="141" fill="brown"/>
<rect x="267" y="407" width="4" height="27" fill="brown"/>
<rect x="267" y="391" width="3" height="16" fill="brown"/>
<rect x="277" y="415" width="5" height="160" fill="brown"/>
<rect x="277" y="392" width="4" height="23" fill="brown"/>
<rect x="277" y="376" width="3" height="16" fill="brown"/>
<text x="209" y="585" font-family = "monospace" font-size="10px" font-weight="normal" fill="black">1..12</text>
<rect x="292" y="561" width="5" height="14" fill="darkorchid"/>
<rect x="292" y="559" width="4" height="2" fill="darkorchid"/>
<rect x="292" y="558" width="3" height="1" fill="darkorchid"/>
<rect x="302" y="505" width="5" height="70" fill="darkorchid"/>
<rect x="302" y="483" width="4" height="22" fill="darkorchid"/>
<rect x="302" y="460" width="3" height="23" fill="darkorchid"/>
<rect x="312" y="536" width="5" height="39" fill="darkorchid"/>
<rect x="312" y="531" width="4" height="5" fill="darkorchid"/>
<rect x="312" y="526" width="3" height="5" fill="darkorchid"/>
<rect x="322" y="522" width="5" height="53" fill="darkorchid"/>
<rect x="322" y="518" width="4" height="4" fill="darkorchid"/>
<rect x="322" y="512" width="3" height="6" fill="darkorchid"/>
<rect x="332" y="507" width="5" height="68" fill="darkorchid"/>
<rect x="332" y="499" width="4" height="8" fill="darkorchid"/>
<rect x="332" y="489" width="3" height="10" fill="darkorchid"/>
<rect x="342" y="488" width="5" height="87" fill="darkorchid"/>
<rect x="342" y="476" width="4" height="12" fill="darkorchid"/>
<rect x="342" y="455" width="3" height="21" fill="darkorchid"/>
<rect x="352" y="347" width="5" height="228" fill="darkorchid"/>
<rect x="352" y="298" width="4" height="49" fill="darkorchid"/>
<rect x="352" y="190" width="3" height="108" fill="darkorchid"/>
<rect x="362" y="469" width="5" height="106" fill="darkorchid"/>
<rect x="362" y="458" width="4" height="11" fill="darkorchid"/>
<rect x="362" y="449" width="3" height="9" fill="darkorchid"/>
<rect x="372" y="458" width="5" height="117" fill="darkorchid"/>
<rect x="372" y="441" width="4" height="17" fill="darkorchid"/>
<rect x="372" y="431" width="3" height="10" fill="darkorchid"/>
<rect x="382" y="445" width="5" height="130" fill="darkorchid"/>
<rect x="382" y="425" width="4" height="20" fill="darkorchid"/>
<rect x="382" y="409" width="3" height="16" fill="darkorchid"/>
<rect x="392" y="220" width="5" height="355" fill="darkorchid"/>
<rect x="392" y="173" width="4" height="47" fill="darkorchid"/>
<rect x="392" y="142" width="3" height="31" fill="darkorchid"/>
<rect x="402" y="393" width="5" height="182" fill="darkorchid"/>
<rect x="402" y="374" width="4" height="19" fill="darkorchid"/>
<rect x="402" y="360" width="3" height="14" fill="darkorchid"/>
<text x="334" y="585" font-family = "monospace" font-size="10px" font-weight="normal" fill="black">1..12</text>
<rect x="417" y="575" width="5" height="0" fill="red"/>
<rect x="417" y="575" width="4" height="0" fill="red"/>
<rect x="417" y="575" width="3" height="0" fill="red"/>
<rect x="427" y="575" width="5" height="0" fill="red"/>
<rect x="427" y="575" width="4" height="0" fill="red"/>
<rect x="427" y="575" width="3" height="0" fill="red"/>
<rect x="437" y="575" width="5" height="0" fill="red"/>
<rect x="437" y="575" width="4" height="0" fill="red"/>
<rect x="437" y="575" width="3" height="0" fill="red"/>
<rect x="447" y="575" width="5" height="0" fill="red"/>
<rect x="447" y="575" width="4" height="0" fill="red"/>
<rect x="447" y="575" width="3" height="0" fill="red"/>
<rect x="457" y="575" width="5" height="0" fill="red"/>
<rect x="457" y="575" width="4" height="0" fill="red"/>
<rect x="457" y="575" width="3" height="0" fill="red"/>
<rect x="467" y="575" width="5" height="0" fill="red"/>
<rect x="467" y="575" width="4" height="0" fill="red"/>
<rect x="467" y="575" width="3" height="0" fill="red"/>
<rect x="477" y="575" width="5" height="0" fill="red"/>
<rect x="477" y="575" width="4" height="0" fill="red"/>
<rect x="477" y="575" width="3" height="0" fill="red"/>
<rect x="487" y="575" width="5" height="0" fill="red"/>
<rect x="487" y="575" width="4" height="0" fill="red"/>
<rect x="487" y="575" width="3" height="0" fill="red"/>
<rect x="497" y="575" width="5" height="0" fill="red"/>
<rect x="497" y="575" width="4" height="0" fill="red"/>
<rect x="497" y="575" width="3" height="0" fill="red"/>
<rect x="507" y="575" width="5" height="0" fill="red"/>
<rect x="507" y="575" width="4" height="0" fill="red"/>
<rect x="507" y="575" width="3" height="0" fill="red"/>
<rect x="517" y="575" width="5" height="0" fill="red"/>
<rect x="517" y="575" width="4" height="0" fill="red"/>
<rect x="517" y="575" width="3" height="0" fill="red"/>
<rect x="527" y="575" width="5" height="0" fill="red"/>
<rect x="527" y="575" width="4" height="0" fill="red"/>
<rect x="527" y="575" width="3" height="0" fill="red"/>
<text x="459" y="585" font-family = "monospace" font-size="10px" font-weight="normal" fill="black">1..12</text>
<rect x="32" y="590" width="10" height="8" fill="cadetblue"/>
<text x="45" y="598" font-family = "monospace" font-size="10px" font-weight="normal" fill="black">integralThreadLock</text>
<rect x="154" y="590" width="10" height="8" fill="brown"/>
<text x="167" y="598" font-family = "monospace" font-size="10px" font-weight="normal" fill="black">integralThreadStNoLock</text>
<rect x="298" y="590" width="10" height="8" fill="darkorchid"/>
<text x="311" y="598" font-family = "monospace" font-size="10px" font-weight="normal" fill="black">integralThreadStLock</text>
<rect x="431" y="590" width="10" height="8" fill="red"/>
<text x="444" y="598" font-family = "monospace" font-size="10px" font-weight="normal" fill="black">integralOpenMP</text>
</svg>